PathFileType	4	(X/Y/Z)	Walk1_0-155.trc
DataRate	CameraRate	NumFrames	NumMarkers	Units	OrigDataRate	OrigDataStartFrame	OrigNumFrames
30	30	9	22	m	30	38	155
Frame#	Time	Hip			RHip			RKnee			RAnkle			RBigToe			RSmallToe			RHeel			LHip			LKnee			LAnkle			LBigToe			LSmallToe			LHeel			Neck			Head			Nose			RShoulder			RElbow			RWrist			LShoulder			LElbow			LWrist		
		X1	Y1	Z1	X2	Y2	Z2	X3	Y3	Z3	X4	Y4	Z4	X5	Y5	Z5	X6	Y6	Z6	X7	Y7	Z7	X8	Y8	Z8	X9	Y9	Z9	X10	Y10	Z10	X11	Y11	Z11	X12	Y12	Z12	X13	Y13	Z13	X14	Y14	Z14	X15	Y15	Z15	X16	Y16	Z16	X17	Y17	Z17	X18	Y18	Z18	X19	Y19	Z19	X20	Y20	Z20	X21	Y21	Z21	X22	Y22	Z22
39	1.3	-2.113818110830418	0.8406651145434232	0.3756746106407594	-2.067621175715717	0.8295319890053786	0.468787334660261	-1.9689634295066674	0.4729476862226745	0.46131490964929145	-2.0114869200032173	0.09838744121836583	0.44055575921957874	-1.8255699909319452	0.00571375073162236	0.4141305011825111	-1.8649978842608186	0.0008980410149796542	0.5064581617450618	-2.073800065198416	0.019363638113943826	0.4213970101687542	-2.1314850369437566	0.8255264954866579	0.28123521344528823	-2.0796858209923625	0.44323402843255555	0.277631385203174	-2.4055071541975415	0.17336829628445355	0.2911568506201095	-2.3437444654684816	-0.018846379118946228	0.2870723833103915	-2.387413525632516	0.007095971193830959	0.23645472353691718	-2.4569464784322874	0.1824643993185572	0.2790031646501718	-2.125852134425734	1.5182133245708802	0.33573890288412167	-2.049757369909614	1.794735326242469	0.3263370917473472	-1.9783052837293524	1.6467344821850467	0.34651649135361795	-2.146965824263141	1.407913637970639	0.5295208656444991	-2.0878508272475003	1.0874751023248355	0.6337508053414237	-2.1090881983136707	0.8445718088973175	0.6444103722228447	-2.1785814316284213	1.4234170298135271	0.13262632403854915	-2.1324412745921557	1.091657883282184	0.13251258110238043	-2.0809106672766706	0.8345388551120299	0.13634252073142522
40	1.3333333333333333	-2.0992983492785053	0.8465880122207651	0.3709614842455768	-2.0658039098037775	0.8323382225776843	0.46614044300624585	-1.9614680822707795	0.4717856626565251	0.4653315127741088	-2.013138871790347	0.09863100608272456	0.4400684608942208	-1.817905962969553	0.014349402485569407	0.43416285222802337	-1.8443513372017757	0.00882883360670107	0.5101754113285143	-2.1076870926028297	0.00502406061148049	0.42339296014107797	-2.1131157932512	0.8296623827449627	0.27778044855950124	-2.007966258690649	0.4569105808518655	0.2829082787906493	-2.3447686394422464	0.1967810055519763	0.3016727861987143	-2.302875814286237	-0.008913491539717038	0.29285085135906586	-2.3448102440627956	0.01798740868600839	0.24477168099648844	-2.427112331777122	0.19170071196223298	0.3036418971969142	-2.099335129297969	1.5242771228117087	0.34281496354171537	-2.0139780582551916	1.7808708170440715	0.38663431056197406	-1.9518280715560743	1.65422681392524	0.35134486113784863	-2.112328656422127	1.4131632442476945	0.5358259492080072	-2.0532798965991836	1.0894230478237459	0.6326134635447066	-2.0507581191247755	0.8497272010416357	0.644135822851477	-2.1552404889710215	1.4352782803101676	0.1385674693828644	-2.1068162982381433	1.1017578660062466	0.1375839874102149	-2.0555112432683775	0.8554208758604133	0.12230873879237361
41	1.3666666666666667	-2.0722992175279975	0.8519476249976096	0.3718125244209529	-2.0459664534466193	0.8308918646834873	0.46742769381103466	-1.9745552627481384	0.4686913953145316	0.4713515442217037	-2.03978215719792	0.08373884645061769	0.4258070687871136	-1.8136630047622817	0.01205169697783802	0.4342496789406763	-1.8435944799400397	0.001987928462896235	0.5044314947649683	-2.1064466804613877	0.005266380083259838	0.4220247849845138	-2.073373541301329	0.8334580458410639	0.2808557984791544	-1.9432206675765122	0.4804579904327454	0.28111149084005416	-2.2831240411743337	0.21636967897154272	0.30785513174175044	-2.2237843015884127	0.0032863563746766923	0.29847608152193256	-2.2614274297167785	0.03563686887953161	0.24854658434605514	-2.3651657939528525	0.21111207239322927	0.30368937711829613	-2.071351041470762	1.5347057417813317	0.349233372784343	-2.0022405013796165	1.7837820727307283	0.3834154066646191	-1.9268634086542469	1.6613964710972104	0.3561071441174221	-2.086186322939598	1.4182698392047077	0.5393474101832147	-2.0474881027381073	1.096139010180422	0.6281046210596753	-1.9960594761275277	0.8517532028121187	0.647620723140031	-2.129286409089651	1.4446705707548388	0.15071186622155835	-2.086820265187556	1.1087368653950087	0.14120927766353356	-2.036503919331785	0.8618986942861881	0.12366320744755172
42	1.4	-2.0420825504061293	0.8550661070844583	0.3741748610239322	-2.0175192341085224	0.8301598916860052	0.4707512725702042	-1.9778523065657487	0.46072638022480916	0.4735990297015213	-2.0133036114777525	0.09987723834904531	0.44412604045299336	-1.8283467782010676	0.005565453700285188	0.44549438355773074	-1.8482390954470518	0.0029302230835780655	0.5076889186589895	-2.1093943216889106	0.0016932308627957712	0.42379944508049366	-2.0412606701370444	0.8387878399456623	0.27751008934212196	-1.8746609018339142	0.5004333011417094	0.28450418127300936	-2.2074150090976636	0.221153555873123	0.31404707155952716	-2.1233200071297205	0.016207859827886677	0.28615487799746125	-2.172418260794823	0.0464930931827043	0.23999438185074082	-2.2818103794422417	0.20826715625214987	0.3108819381028592	-2.042274500467827	1.5430548406185414	0.35421433396465235	-1.9849027373852104	1.7851761372311494	0.38267012072167567	-1.897532222362162	1.6661375867653228	0.36300234977618545	-2.0593076761186646	1.42293963177567	0.5430725371816021	-2.00726692764969	1.0963839514546836	0.6289523575218076	-1.933077358695091	0.8594166225089672	0.6497172808309613	-2.1050097368273706	1.4485632454274104	0.15267633324807348	-2.0962490482256513	1.1292132761260072	0.10799112577774304	-2.0179913194491417	0.8646547674895625	0.12514623030112232
43	1.4333333333333333	-2.0174001851316254	0.8587603023576648	0.3789190287078833	-1.9985663253230006	0.8340343658988165	0.4739153085898331	-1.971352213532036	0.46226638037168094	0.4747913881170654	-2.020827060016954	0.10399102426445767	0.44429833878278296	-1.8262226096484255	0.0051845411988510025	0.43892850979028386	-1.8731319172427545	-0.004468330594214775	0.5130580258172973	-2.0727034967254685	0.03091588875574927	0.4252702890921935	-2.0124370138233814	0.8442076154026738	0.2760198044423173	-1.8073034003816566	0.5190503850040317	0.28953504148627063	-2.094987114336852	0.21865500274584262	0.29797966940841036	-1.983386088128767	0.03392303835566353	0.29881022931615536	-2.040590858808207	0.05660320337448903	0.2424794161466726	-2.1830932302972945	0.18842807068078143	0.30108237400358695	-2.0143958822759926	1.5462778616462745	0.3568132529227557	-1.956662952932532	1.8044676090006062	0.36298852294709477	-1.866790455523276	1.6717914175705337	0.3689440469577739	-2.035769573577617	1.4307228940922978	0.5470285700862533	-1.9669676509411789	1.1066206041750732	0.6334956956541633	-1.8707898825328255	0.8717760645117322	0.6495045156129785	-2.0794160026598534	1.4489788695398051	0.15583993866055618	-2.0757836087898984	1.1298280174230375	0.10932783430073523	-1.9760282734771155	0.8722164611849872	0.12667275663623093
44	1.4666666666666666	-1.988859108218315	0.8659059393222729	0.3807405046676455	-1.9800838544071926	0.8381883860095862	0.4756734897088265	-1.9880044471484095	0.47040077876233843	0.45779333328444505	-2.0204531469747256	0.10656950227469486	0.44593385224137244	-1.8296989704375868	0.005816245304713965	0.44418459050356607	-1.8846542741805727	-0.007390658760057035	0.5199257653753442	-2.0644898910967755	0.04037451799931714	0.4404785955421832	-1.9699227394329908	0.8540350130206621	0.2760668958251021	-1.758000859394444	0.5368805877746903	0.29243150305601257	-2.0153911960857855	0.1816892899013456	0.3153173415068437	-1.8758136090957955	0.03689652991025005	0.3195141892093305	-1.935521431576238	0.04780345089386275	0.2565941130482221	-2.0868741772462838	0.13307847516010426	0.3217814548095615	-1.9844181931412468	1.5471347944620295	0.3591528665232527	-1.916957897104258	1.7946017247906665	0.39369770871119447	-1.838462113617085	1.6635208740524672	0.36809253639472006	-2.0058070334506666	1.4334341858218982	0.5545670954308308	-1.9267352591606552	1.1158192474780353	0.6353191187325264	-1.8211103905257533	0.8892657387249842	0.6532170372087353	-2.0531502842109113	1.4470967669206816	0.15712014967326415	-2.047417998306689	1.1309045853149018	0.11358671702831584	-1.9734741899000774	0.8620244322102216	0.13487566046821928
45	1.5	-1.9631221440463933	0.8725373338034399	0.3849082978142745	-1.9575796868668778	0.8447126788282519	0.47524449330521545	-1.98003686615139	0.474926153859405	0.46009316863050886	-2.0181346156122144	0.09961801605946857	0.44243171395604164	-1.8365228219703937	0.0021993943736465793	0.44275746072869465	-1.8752731838491536	-0.002046553687486628	0.515155664597105	-2.0573656429557206	0.026448624451587105	0.4436929490910213	-1.941537783404354	0.8582171547525619	0.2794893898883742	-1.715571040237557	0.5463173885506449	0.2894054036483619	-1.9279899293290677	0.1750110032868074	0.31223041691292064	-1.7627934146261197	0.026771858862736937	0.3061043968449289	-1.8179971391171579	0.032098689791504445	0.24736601428342206	-1.9862750131563078	0.10820484255771698	0.3246273388756175	-1.9556551924829557	1.5492939302926942	0.36083119803541774	-1.892471862390013	1.7949587027117835	0.3884054175838367	-1.8097632437864908	1.6620159450870662	0.3653665621783686	-1.9731842210037502	1.4376478490020062	0.5559690642715168	-1.8874028499941204	1.1227000561050025	0.6351899861796421	-1.7656333755362434	0.9006671245347686	0.6563312714293877	-2.026694687478557	1.4476922593854826	0.15743785838705365	-2.0274178894179276	1.1310729622518672	0.11233322006362746	-1.957538682199349	0.8873636225266922	0.11925129692757044
46	1.5333333333333334	-1.9325329813769123	0.8697236968859932	0.39143864599753747	-1.9328429944639653	0.8374789670002616	0.47787697998360124	-1.974434270881852	0.4739317506063893	0.46082523437057843	-2.014408691027254	0.09091977025900976	0.4367798873620573	-1.8542011179562632	-0.0171179808214454	0.46924327017473555	-1.862000830723663	0.008042606200645265	0.5072468842228702	-2.049184370663496	0.01786892209634936	0.443605786576325	-1.906597073623621	0.8532460710269683	0.2801838682729014	-1.6861887634518822	0.5558936431833511	0.28589054871827213	-1.8314990773524897	0.15226271015526122	0.30984225626998707	-1.6374080723340076	0.030080183182850346	0.30426470766041386	-1.6745999874726545	0.03818051372032239	0.24260781821192462	-1.882226142193003	0.07672377710949727	0.32486665070840487	-1.9269453681359447	1.5464198581019575	0.36152541620403494	-1.8719838984086141	1.7950812780280965	0.380977487219268	-1.7840916380854313	1.6623502853553016	0.36023091657824025	-1.9401867094507603	1.439174831993677	0.5560236547998073	-1.8459062135803086	1.1254314211670369	0.6346612592085753	-1.7057843635161236	0.906066959111653	0.6482565523037218	-1.9952143787406194	1.4469199091506426	0.1608009181517908	-2.003586155424572	1.1327906493819637	0.10977165539728373	-1.9272575604078268	0.8674038414891457	0.12970202450869187
47	1.5666666666666667	-1.903019879182551	0.8632479354947251	0.3978936797010214	-1.911032531785172	0.833896837272304	0.485796446660643	-1.969209274477199	0.46572380586332623	0.4586258808579811	-2.021809715334312	0.08008723854642136	0.4227720909493425	-1.8673915003685906	-0.013142773279535967	0.4169209600531412	-1.9120303796284268	-0.02753974423422723	0.4688329472675734	-2.06306812124051	0.006115871240914882	0.4297672511837353	-1.8756979000523024	0.8510106632279543	0.2864518680113289	-1.6560861212620754	0.5506872409277	0.2874515199626603	-1.7027097120224879	0.15402522565322402	0.3106679648498807	-1.489592972872384	0.05133910942743326	0.28112873019272894	-1.5447669226224043	0.042919837002989875	0.23695557691136918	-1.772739282394817	0.0514742303655156	0.32535286769267674	-1.896458060114334	1.547751883129626	0.36699665526157604	-1.8424430459488856	1.7951181688742057	0.3782805506491357	-1.748751652821875	1.6598906338779356	0.3599747640511978	-1.911885151530482	1.43880994868397	0.5569815586069986	-1.8081502675513066	1.1264729303084957	0.634250367433702	-1.6494785592613128	0.9098586389449143	0.6410639369587474	-1.9613680046251105	1.4448560430765718	0.16636411392511688	-1.9715815686993465	1.1294623161306419	0.11717894314103698	-1.8863692956970213	0.8695679030090656	0.12490647016223755
